<svg width="95" height="100" viewBox="0 0 95 100" fill="none" xmlns="http://www.w3.org/2000/svg">
<g clip-path="url(#clip0_1103_6882)">
<path d="M89.8838 84.5531C80.1247 84.5531 72.2287 76.675 72.2287 66.971V40.642H95V25.3276H72.2287V0L54.7805 9.27698V25.3276H21.6882C-1.37886 25.3276 -7.44136 53.0113 10.3025 63.3191L28.3421 75.3939C32.3345 78.339 30.708 84.5236 25.0891 84.5236H0.543392V99.9853H25.0891C48.304 99.9853 54.2186 72.3016 36.4748 61.9938L18.583 49.919C14.5906 46.9739 16.0693 40.642 21.6882 40.642H54.7805V67.1771C54.7805 87.2036 68.6799 100 89.6768 100H95V84.5531H89.8838Z" fill="#E6007A"/>
</g>
<defs>
<clipPath id="clip0_1103_6882">
<rect width="95" height="100" fill="white"/>
</clipPath>
</defs>
</svg>
