<svg width="328" height="229" viewBox="0 0 328 229" fill="none" xmlns="http://www.w3.org/2000/svg">
<path d="M125.358 49.1266C135.675 40.1746 161.793 18.9683 183.6 13.346C189.195 11.8995 194.244 11.2172 198.993 11.2172C207.454 11.2172 213.568 13.4825 219.463 15.6386C224.73 17.5764 230.189 19.596 236.684 19.596C239.55 19.596 242.388 19.2139 245.363 18.4497C249.157 17.4672 252.978 14.9563 257.017 12.3089C262.912 8.46063 269.599 4.06653 276.859 4.06653C282.809 4.06653 288.704 6.95954 294.899 12.9366L314.031 30.8951C323.502 40.4202 324.13 53.4388 322.983 62.6364C320.172 85.2347 303.169 111.927 283.819 124.536L125.358 49.1266Z" fill="url(#paint0_radial_71_54)"/>
<path d="M276.858 8.18777C281.689 8.18777 286.656 10.726 292.115 15.9935L311.083 33.8155C317.77 40.6114 320.39 50.1365 318.889 62.1725C316.296 82.9694 301.067 107.424 283.436 119.869L132.781 48.1441C144.762 38.2096 166.323 21.9978 184.582 17.3035C189.85 15.9662 194.544 15.2838 198.965 15.2838C206.689 15.2838 212.202 17.3035 218.016 19.4596C223.638 21.5338 229.424 23.6627 236.656 23.6627C239.877 23.6627 243.043 23.2533 246.373 22.3799C250.821 21.2336 254.915 18.559 259.255 15.7205C264.959 12.036 270.827 8.18777 276.858 8.18777ZM276.858 0C263.212 0 252.65 12.3362 244.326 14.4924C241.569 15.202 239.031 15.5022 236.684 15.5022C224.211 15.5022 216.078 7.09607 198.993 7.09607C194.298 7.09607 188.922 7.7238 182.563 9.36135C153.441 16.8395 118.016 50.1365 118.016 50.1365L284.091 129.203C315.614 110.289 343.452 54.7489 316.815 27.9203L297.737 9.98908C290.068 2.62009 283.136 0 276.858 0Z" fill="#EDA600"/>
<path d="M170.554 222.435C166.323 222.435 162.175 220.906 158.954 218.122L28.7143 103.03C13.7852 89.8199 4.58762 73.3079 4.12364 58.8155C3.79613 48.4989 7.78085 39.083 15.9686 30.8406L34.9643 13.0186C41.187 7.01423 47.0822 4.12122 53.0319 4.12122C60.2918 4.12122 66.9785 8.48803 72.8736 12.3636C76.9129 15.011 80.7339 17.5219 84.5276 18.5044C87.5025 19.2686 90.3409 19.6507 93.2066 19.6507C99.7023 19.6507 105.133 17.631 110.401 15.6933C116.296 13.5099 122.41 11.2719 130.87 11.2719C135.647 11.2719 140.668 11.9815 146.263 13.4007C174.02 20.5241 208.681 52.8658 209.036 53.1933L286.001 121.698C293.643 128.248 294.571 139.738 288.158 147.38L287.612 148.035C284.2 152.102 279.206 154.421 273.911 154.421C271.072 154.421 268.234 153.739 265.723 152.429C265.123 152.129 264.495 151.965 263.84 151.965C262.939 151.965 262.038 152.265 261.302 152.866C260.046 153.876 259.473 155.513 259.882 157.069C261.329 162.8 259.937 168.887 256.171 173.335L255.625 173.99C252.213 178.057 247.219 180.377 241.951 180.377C237.939 180.377 234.145 179.067 230.98 176.61C230.243 176.037 229.369 175.737 228.469 175.737C227.759 175.737 227.022 175.928 226.394 176.31C224.948 177.156 224.156 178.821 224.429 180.486C225.248 185.753 223.774 191.075 220.39 195.115L219.844 195.77C216.433 199.836 211.438 202.156 206.143 202.156C202.295 202.156 198.611 200.928 195.526 198.635C194.817 198.09 193.944 197.844 193.097 197.844C192.415 197.844 191.733 198.008 191.105 198.362C189.713 199.127 188.867 200.655 189.004 202.265C189.386 207.096 187.885 211.763 184.773 215.448L184.227 216.103C180.843 220.115 175.849 222.435 170.554 222.435Z" fill="url(#paint1_radial_71_54)"/>
<path d="M53.0051 8.18777C59.0641 8.18777 64.932 12.036 70.6089 15.7478C74.9484 18.5862 79.0423 21.2609 83.491 22.4072C86.8206 23.2806 89.9866 23.69 93.2071 23.69C100.412 23.69 106.226 21.5338 111.821 19.4869C117.634 17.3308 123.147 15.3111 130.871 15.3111C135.292 15.3111 139.987 15.9662 145.254 17.3308C171.973 24.1812 205.925 55.8133 206.253 56.1408C206.308 56.1954 206.362 56.25 206.417 56.2773L283.3 124.7L283.409 124.809C289.277 129.831 290.014 138.755 285.019 144.705L284.474 145.36C281.826 148.499 278.005 150.3 273.911 150.3C271.728 150.3 269.544 149.782 267.607 148.772C266.433 148.171 265.123 147.871 263.84 147.871C262.039 147.871 260.238 148.472 258.737 149.645C256.226 151.638 255.107 154.94 255.898 158.051C257.017 162.5 255.953 167.222 253.032 170.688L252.487 171.343C249.839 174.481 246.018 176.283 241.952 176.283C238.868 176.283 235.947 175.273 233.491 173.362C232.017 172.216 230.243 171.643 228.469 171.643C227.05 171.643 225.603 172.025 224.321 172.789C221.428 174.509 219.872 177.811 220.391 181.114C221.046 185.207 219.899 189.356 217.252 192.467L216.706 193.122C214.059 196.261 210.238 198.062 206.144 198.062C203.169 198.062 200.358 197.134 197.956 195.36C196.51 194.296 194.79 193.75 193.071 193.75C191.706 193.75 190.341 194.078 189.113 194.76C186.302 196.316 184.665 199.372 184.91 202.566C185.21 206.305 184.037 209.935 181.635 212.8L181.089 213.455C178.442 216.594 174.594 218.395 170.5 218.395C167.225 218.395 164.059 217.222 161.657 215.175L31.3621 100C17.2792 87.5273 8.60011 72.107 8.16343 58.7336C7.86321 49.5087 11.3294 41.3755 18.7257 33.8701L37.8032 15.9662C43.2071 10.726 48.1744 8.18777 53.0051 8.18777ZM53.0051 0C46.7278 0 39.7955 2.62009 32.1263 10.0164L13.0488 27.9476C-13.5888 54.7762 5.57064 88.0459 25.9855 106.086L156.28 221.261C160.429 224.809 165.505 226.556 170.554 226.556C176.804 226.556 183.027 223.881 187.394 218.695L187.94 218.04C191.87 213.373 193.562 207.56 193.098 201.911C197.001 204.804 201.586 206.223 206.171 206.223C212.421 206.223 218.617 203.548 222.983 198.362L223.529 197.707C227.869 192.549 229.452 185.999 228.469 179.803C232.481 182.915 237.23 184.443 241.952 184.443C248.202 184.443 254.397 181.769 258.764 176.61L259.31 175.955C264.113 170.251 265.56 162.8 263.84 156.032C267.006 157.669 270.445 158.461 273.884 158.461C280.134 158.461 286.329 155.813 290.696 150.628L291.242 149.973C299.13 140.584 297.983 126.556 288.677 118.586L211.848 50.1638C211.848 50.1638 176.395 16.8395 147.301 9.38865C140.969 7.75109 135.592 7.12336 130.871 7.12336C113.813 7.12336 105.68 15.5295 93.1798 15.5295C90.8054 15.5295 88.2944 15.2293 85.5379 14.5197C77.2137 12.3362 66.6514 0 53.0051 0Z" fill="#EDA600"/>
<path d="M71.8641 176.61C66.1054 176.61 60.756 173.745 57.5082 168.968C52.077 160.972 54.0966 149.973 62.0388 144.487L92.006 123.772C94.9263 121.752 98.3106 120.688 101.804 120.688C107.563 120.688 112.912 123.553 116.16 128.33C121.591 136.326 119.572 147.325 111.629 152.811L81.6621 173.526C78.7691 175.546 75.3848 176.61 71.8641 176.61Z" fill="url(#paint2_radial_71_54)"/>
<path d="M101.804 124.809C106.198 124.809 110.292 126.992 112.776 130.649C116.951 136.818 115.396 145.251 109.309 149.454L79.3422 170.169C77.1315 171.698 74.5387 172.516 71.864 172.516C67.4699 172.516 63.3761 170.333 60.8924 166.676C56.7167 160.508 58.2723 152.074 64.3586 147.871L94.3258 127.156C96.5365 125.628 99.1293 124.809 101.804 124.809ZM101.804 116.621C97.6282 116.621 93.3979 117.849 89.6588 120.415L59.6916 141.13C49.8935 147.898 47.3826 161.381 54.0966 171.261C58.2723 177.402 64.9863 180.677 71.864 180.677C76.0398 180.677 80.2702 179.449 84.0092 176.883L113.976 156.168C123.775 149.399 126.285 135.917 119.571 126.037C115.396 119.923 108.654 116.621 101.804 116.621Z" fill="#EDA600"/>
<path d="M133.9 224.4C129.643 224.4 125.549 222.817 122.356 219.951C115.178 213.51 114.523 202.347 120.909 195.087L138.349 175.328C141.651 171.588 146.4 169.432 151.34 169.432C155.598 169.432 159.692 171.015 162.885 173.881C170.063 180.322 170.718 191.485 164.332 198.745L146.892 218.504C143.589 222.243 138.868 224.4 133.9 224.4Z" fill="url(#paint3_radial_71_54)"/>
<path d="M151.368 173.554C154.615 173.554 157.754 174.754 160.183 176.938C165.696 181.905 166.188 190.475 161.275 196.043L143.835 215.803C141.324 218.668 137.694 220.306 133.9 220.306C130.653 220.306 127.514 219.105 125.085 216.922C119.572 211.954 119.081 203.384 123.993 197.817L141.433 178.057C143.944 175.191 147.574 173.554 151.368 173.554ZM151.368 165.366C145.445 165.366 139.55 167.822 135.292 172.626L117.852 192.385C109.965 201.337 110.756 215.038 119.626 222.98C123.72 226.665 128.824 228.466 133.9 228.466C139.823 228.466 145.718 226.01 149.976 221.206L167.416 201.447C175.303 192.495 174.512 178.794 165.642 170.852C161.548 167.167 156.444 165.366 151.368 165.366Z" fill="#EDA600"/>
<path d="M49.9757 147.626C43.9441 147.626 38.4583 144.542 35.2923 139.383C30.2705 131.195 32.7814 120.415 40.8873 115.338L59.146 103.93C61.8753 102.238 65.014 101.31 68.2072 101.31C74.2388 101.31 79.7246 104.394 82.8906 109.552C87.9124 117.74 85.4015 128.521 77.2956 133.57L59.0369 144.978C56.3076 146.725 53.169 147.626 49.9757 147.626Z" fill="url(#paint4_radial_71_54)"/>
<path d="M68.2074 105.431C72.7925 105.431 76.9956 107.778 79.3973 111.736C83.2456 118.013 81.3351 126.283 75.1124 130.158L56.881 141.539C54.8067 142.849 52.4323 143.532 50.0032 143.532C45.4181 143.532 41.215 141.184 38.8133 137.227C34.965 130.95 36.8755 122.68 43.0982 118.805L61.357 107.396C63.4039 106.113 65.7784 105.431 68.2074 105.431ZM68.2074 97.2434C64.3591 97.2434 60.4836 98.2805 56.9901 100.464L38.7314 111.872C28.715 118.122 25.6037 131.414 31.8264 141.512C35.8657 148.089 42.8526 151.719 50.0032 151.719C53.8515 151.719 57.727 150.682 61.2205 148.499L79.4792 137.091C89.4956 130.841 92.607 117.549 86.3843 107.451C82.3449 100.846 75.358 97.2434 68.2074 97.2434Z" fill="#EDA600"/>
<path d="M97.3555 208.324C92.8522 208.324 88.5946 206.55 85.4014 203.33C78.7966 196.67 78.7966 185.808 85.4014 179.121L117.443 146.807C120.636 143.586 124.894 141.812 129.397 141.812C133.9 141.812 138.158 143.586 141.351 146.807C147.983 153.493 147.983 164.329 141.351 171.015L109.31 203.33C106.116 206.55 101.859 208.324 97.3555 208.324Z" fill="url(#paint5_radial_71_54)"/>
<path d="M129.397 145.906C132.809 145.906 136.029 147.243 138.458 149.7C143.507 154.776 143.507 163.046 138.458 168.15L106.389 200.437C103.96 202.866 100.767 204.23 97.3283 204.23C93.8894 204.23 90.6962 202.893 88.2671 200.437C83.218 195.36 83.218 187.091 88.2671 181.987L120.309 149.673C122.765 147.244 125.958 145.906 129.397 145.906ZM129.397 137.718C124.02 137.718 118.644 139.793 114.523 143.914L82.4811 176.228C74.2661 184.498 74.2661 197.926 82.4811 206.195C86.575 210.344 91.9516 212.391 97.3556 212.391C102.732 212.391 108.109 210.317 112.23 206.195L144.272 173.881C152.487 165.611 152.487 152.183 144.272 143.914C140.15 139.793 134.774 137.718 129.397 137.718Z" fill="#EDA600"/>
<mask id="mask0_71_54" style="mask-type:luminance" maskUnits="userSpaceOnUse" x="108" y="8" width="115" height="71">
<path d="M111.438 67.1124C105.297 56.4956 108.818 44.1048 120.226 37.036L183.763 8.76086C190.75 6.22265 198.583 22.8711 198.583 22.8711L209.691 43.286C209.691 43.286 219.653 57.8875 220.745 59.2248C226.367 66.0207 217.852 57.2871 206.198 54.7216C185.565 50.2183 154.424 75.0818 139.522 77.7292C124.62 80.3766 117.579 77.7292 111.438 67.1124Z" fill="white"/>
</mask>
<g mask="url(#mask0_71_54)">
<path d="M130.16 74.5906C123.01 74.5906 119.025 72.1069 114.958 65.0655C109.909 56.3318 112.802 46.5611 122.109 40.6386L185.237 12.5545C187.83 11.6539 191.951 11.108 196.618 11.108C210.373 11.108 223.474 15.3384 225.275 20.3329C225.357 20.5786 225.466 20.7969 225.603 21.0152L245.717 55.131C245.772 55.3493 245.772 55.4585 245.772 55.5131C245.635 55.5131 244.107 56.5502 238.73 56.5502C230.979 56.5502 218.943 54.3395 207.371 50.7914C204.969 50.0545 202.322 49.6724 199.538 49.6724C186.574 49.6724 171.809 57.6146 158.79 64.6015C150.93 68.8318 143.479 72.8166 138.758 73.6626C135.401 74.2904 132.589 74.5906 130.16 74.5906Z" fill="url(#paint6_linear_71_54)"/>
<path d="M196.645 15.2019C210.21 15.2019 220.417 19.4323 221.454 21.7249C221.618 22.2161 221.836 22.6801 222.109 23.1168L239.44 52.4836H238.785C231.416 52.4836 219.844 50.3548 208.627 46.8886C205.816 46.0425 202.786 45.6059 199.593 45.6059C185.592 45.6059 170.335 53.7936 156.907 61.0262C149.675 64.929 142.169 68.941 138.103 69.6779C134.964 70.2238 132.371 70.4967 130.188 70.4967C125.112 70.4967 122.246 69.405 118.534 63.0185C114.659 56.3046 116.842 48.9901 124.102 44.2685L186.793 16.3755C188.922 15.6386 192.579 15.2019 196.645 15.2019ZM196.645 7.01416C191.514 7.01416 186.875 7.58731 183.736 8.7336L120.199 37.0087C108.791 44.0775 105.27 56.4683 111.411 67.0851C116.105 75.191 121.318 78.6572 130.161 78.6572C132.89 78.6572 135.974 78.3297 139.495 77.7019C152.868 75.3275 179.615 53.7663 199.566 53.7663C201.886 53.7663 204.096 54.0666 206.198 54.6943C217.006 58.024 229.833 60.6441 238.758 60.6441C246.509 60.6441 251.367 58.6517 249.484 53.4388L229.124 18.941C226.258 10.8351 209.8 7.01416 196.645 7.01416Z" fill="#EDA600"/>
</g>
<defs>
<radialGradient id="paint0_radial_71_54" cx="0" cy="0" r="1" gradientUnits="userSpaceOnUse" gradientTransform="translate(224.627 30.2786) rotate(83.2169) scale(104.782 80.919)">
<stop offset="0.5993" stop-color="#FFCA28"/>
<stop offset="1" stop-color="#FFB300"/>
</radialGradient>
<radialGradient id="paint1_radial_71_54" cx="0" cy="0" r="1" gradientUnits="userSpaceOnUse" gradientTransform="translate(149.666 50.8398) rotate(96.7831) scale(165.878 128.101)">
<stop offset="0.5993" stop-color="#FFCA28"/>
<stop offset="1" stop-color="#FFB300"/>
</radialGradient>
<radialGradient id="paint2_radial_71_54" cx="0" cy="0" r="1" gradientUnits="userSpaceOnUse" gradientTransform="translate(105.191 134.834) rotate(144.745) scale(45.3084 29.8898)">
<stop offset="0.5993" stop-color="#FFCA28"/>
<stop offset="1" stop-color="#FFB300"/>
</radialGradient>
<radialGradient id="paint3_radial_71_54" cx="0" cy="0" r="1" gradientUnits="userSpaceOnUse" gradientTransform="translate(154.871 181.773) rotate(130.726) scale(39.047 29.3917)">
<stop offset="0.5993" stop-color="#FFCA28"/>
<stop offset="1" stop-color="#FFB300"/>
</radialGradient>
<radialGradient id="paint4_radial_71_54" cx="0" cy="0" r="1" gradientUnits="userSpaceOnUse" gradientTransform="translate(72.4072 115.777) rotate(148.133) scale(34.5489 25.4931)">
<stop offset="0.5993" stop-color="#FFCA28"/>
<stop offset="1" stop-color="#FFB300"/>
</radialGradient>
<radialGradient id="paint5_radial_71_54" cx="0" cy="0" r="1" gradientUnits="userSpaceOnUse" gradientTransform="translate(134.29 154.382) rotate(45.2391) scale(39.0083 46.8148)">
<stop offset="0.5993" stop-color="#FFCA28"/>
<stop offset="1" stop-color="#FFB300"/>
</radialGradient>
<linearGradient id="paint6_linear_71_54" x1="156.852" y1="29.1442" x2="188.356" y2="86.2644" gradientUnits="userSpaceOnUse">
<stop offset="0.5993" stop-color="#FFCA28"/>
<stop offset="1" stop-color="#FFB300"/>
</linearGradient>
</defs>
</svg>
