<svg width="50" height="35" viewBox="0 0 50 35" fill="none" xmlns="http://www.w3.org/2000/svg">
<path d="M19.1387 7.5004C20.7138 6.13365 24.7015 2.89598 28.0308 2.0376C28.885 1.81675 29.6559 1.71258 30.381 1.71258C31.6727 1.71258 32.6061 2.05843 33.5061 2.38761C34.3103 2.68346 35.1437 2.99181 36.1354 2.99181C36.573 2.99181 37.0063 2.93348 37.4605 2.8168C38.0397 2.6668 38.6231 2.28344 39.2398 1.87925C40.1398 1.29172 41.1607 0.62085 42.2691 0.62085C43.1775 0.62085 44.0775 1.06254 45.0234 1.97509L47.9444 4.71691C49.3903 6.17116 49.4862 8.15877 49.3112 9.56301C48.882 13.0132 46.286 17.0884 43.3317 19.0135L19.1387 7.5004Z" fill="url(#paint0_radial_71_54)"/>
<path d="M42.2694 1.25007C43.0069 1.25007 43.7653 1.63759 44.5987 2.4418L47.4947 5.16279C48.5156 6.20034 48.9156 7.65459 48.6864 9.49219C48.2906 12.6674 45.9654 16.4009 43.2736 18.301L20.2724 7.35041C22.1016 5.83366 25.3935 3.35852 28.1811 2.64181C28.9853 2.43763 29.702 2.33346 30.3771 2.33346C31.5563 2.33346 32.398 2.64181 33.2856 2.971C34.144 3.28768 35.0273 3.6127 36.1316 3.6127C36.6233 3.6127 37.1066 3.5502 37.615 3.41686C38.2942 3.24185 38.9192 2.83349 39.5818 2.40013C40.4526 1.8376 41.3485 1.25007 42.2694 1.25007ZM42.2694 0C40.186 0 38.5734 1.88344 37.3025 2.21262C36.8816 2.32096 36.4941 2.3668 36.1357 2.3668C34.2315 2.3668 32.9897 1.08339 30.3812 1.08339C29.6645 1.08339 28.8437 1.17923 27.8728 1.42925C23.4267 2.57098 18.0181 7.65459 18.0181 7.65459L43.3736 19.7261C48.1864 16.8384 52.4366 8.3588 48.3697 4.26274L45.4571 1.52508C44.2862 0.400022 43.2278 0 42.2694 0Z" fill="#EDA600"/>
<path d="M26.0395 33.9603C25.3937 33.9603 24.7603 33.7269 24.2686 33.3019L4.38418 15.7301C2.10488 13.7133 0.70064 11.1924 0.629802 8.97973C0.5798 7.40465 1.18817 5.96707 2.43824 4.70866L5.3384 1.98768C6.28845 1.07096 7.1885 0.629272 8.09688 0.629272C9.20528 0.629272 10.2262 1.29598 11.1262 1.88768C11.7429 2.29186 12.3263 2.67522 12.9055 2.82523C13.3597 2.9419 13.793 3.00024 14.2306 3.00024C15.2223 3.00024 16.0515 2.69189 16.8557 2.39604C17.7557 2.06268 18.6891 1.721 19.9809 1.721C20.7101 1.721 21.4768 1.82934 22.331 2.04602C26.5687 3.13358 31.8607 8.07135 31.9149 8.12135L43.6655 18.5803C44.8322 19.5803 44.9739 21.3346 43.9947 22.5013L43.9114 22.6013C43.3905 23.2222 42.628 23.5764 41.8196 23.5764C41.3862 23.5764 40.9529 23.4722 40.5695 23.2722C40.4778 23.2264 40.382 23.2014 40.282 23.2014C40.1445 23.2014 40.007 23.2472 39.8945 23.3389C39.7028 23.493 39.6153 23.743 39.6778 23.9806C39.8986 24.8556 39.6861 25.7848 39.1111 26.464L39.0278 26.564C38.5069 27.1849 37.7443 27.5391 36.9401 27.5391C36.3276 27.5391 35.7484 27.3391 35.265 26.9641C35.1525 26.8766 35.0192 26.8307 34.8817 26.8307C34.7734 26.8307 34.6608 26.8599 34.565 26.9182C34.3442 27.0474 34.2233 27.3016 34.265 27.5558C34.39 28.36 34.165 29.1725 33.6483 29.7892L33.565 29.8892C33.0441 30.5101 32.2815 30.8643 31.4732 30.8643C30.8856 30.8643 30.3231 30.6768 29.8522 30.3267C29.7439 30.2434 29.6106 30.2059 29.4814 30.2059C29.3772 30.2059 29.273 30.2309 29.1772 30.2851C28.9647 30.4017 28.8355 30.6351 28.8564 30.8809C28.9147 31.6185 28.6855 32.331 28.2105 32.8936L28.1272 32.9936C27.6105 33.6061 26.8479 33.9603 26.0395 33.9603Z" fill="url(#paint1_radial_71_54)"/>
<path d="M8.09256 1.25007C9.01762 1.25007 9.9135 1.8376 10.7802 2.4043C11.4427 2.83766 12.0678 3.24601 12.747 3.42102C13.2553 3.55436 13.7387 3.61687 14.2304 3.61687C15.3305 3.61687 16.218 3.28768 17.0722 2.97516C17.9598 2.64598 18.8015 2.33763 19.9807 2.33763C20.6558 2.33763 21.3725 2.43763 22.1767 2.64598C26.2561 3.69187 31.4397 8.5213 31.4897 8.57131C31.498 8.57964 31.5064 8.58797 31.5147 8.59214L43.2528 19.0386L43.2695 19.0552C44.1654 19.8219 44.2779 21.1845 43.5154 22.0929L43.432 22.1929C43.0278 22.6721 42.4445 22.9471 41.8194 22.9471C41.4861 22.9471 41.1527 22.8679 40.8569 22.7138C40.6777 22.6221 40.4777 22.5762 40.2818 22.5762C40.0068 22.5762 39.7318 22.6679 39.5026 22.8471C39.1193 23.1513 38.9484 23.6555 39.0693 24.1305C39.2401 24.8097 39.0776 25.5306 38.6317 26.0598L38.5484 26.1598C38.1442 26.639 37.5609 26.914 36.94 26.914C36.4691 26.914 36.0233 26.7598 35.6483 26.4681C35.4232 26.2931 35.1524 26.2056 34.8815 26.2056C34.6649 26.2056 34.444 26.2639 34.2482 26.3806C33.8065 26.6431 33.569 27.1473 33.6481 27.6515C33.7481 28.2766 33.5731 28.9099 33.1689 29.385L33.0856 29.485C32.6814 29.9642 32.0981 30.2392 31.473 30.2392C31.0188 30.2392 30.5896 30.0975 30.223 29.8266C30.0021 29.6641 29.7396 29.5808 29.4771 29.5808C29.2687 29.5808 29.0604 29.6308 28.8729 29.735C28.4437 29.9725 28.1937 30.4392 28.2312 30.9267C28.277 31.4976 28.0978 32.0518 27.7311 32.4893L27.6478 32.5893C27.2436 33.0685 26.6561 33.3435 26.0311 33.3435C25.531 33.3435 25.0477 33.1643 24.681 32.8518L4.78822 15.2675C2.6381 13.3632 1.31302 11.0089 1.24635 8.96716C1.20052 7.55875 1.72971 6.31702 2.85894 5.17112L5.7716 2.43763C6.59665 1.63759 7.35502 1.25007 8.09256 1.25007ZM8.09256 0C7.13418 0 6.07579 0.400022 4.90489 1.52925L1.99223 4.2669C-2.07466 8.36296 0.850498 13.4424 3.96734 16.1967L23.8601 33.781C24.4935 34.3227 25.2685 34.5894 26.0394 34.5894C26.9936 34.5894 27.9437 34.1811 28.6104 33.3893L28.6937 33.2893C29.2937 32.5768 29.5521 31.6893 29.4812 30.8267C30.0771 31.2684 30.7772 31.4851 31.4772 31.4851C32.4314 31.4851 33.3773 31.0767 34.044 30.285L34.1273 30.185C34.7899 29.3975 35.0316 28.3974 34.8815 27.4515C35.4941 27.9265 36.2191 28.1599 36.94 28.1599C37.8942 28.1599 38.8401 27.7515 39.5068 26.964L39.5901 26.864C40.3235 25.9931 40.5444 24.8555 40.2818 23.8221C40.7652 24.0722 41.2902 24.193 41.8153 24.193C42.7695 24.193 43.7154 23.7888 44.3821 22.9971L44.4654 22.8971C45.6696 21.4637 45.4946 19.3219 44.0737 18.1052L32.3439 7.65876C32.3439 7.65876 26.9311 2.57098 22.4892 1.43341C21.5225 1.1834 20.7016 1.08756 19.9807 1.08756C17.3764 1.08756 16.1347 2.37096 14.2262 2.37096C13.8637 2.37096 13.4804 2.32513 13.0595 2.21679C11.7886 1.88344 10.176 0 8.09256 0Z" fill="#EDA600"/>
<path d="M10.972 26.964C10.0928 26.964 9.27612 26.5265 8.78026 25.7973C7.95105 24.5764 8.2594 22.8971 9.47196 22.0596L14.0472 18.8969C14.4931 18.5885 15.0098 18.426 15.5431 18.426C16.4223 18.426 17.2391 18.8636 17.7349 19.5928C18.5641 20.8137 18.2558 22.4929 17.0432 23.3305L12.468 26.4931C12.0263 26.8015 11.5096 26.964 10.972 26.964Z" fill="url(#paint2_radial_71_54)"/>
<path d="M15.543 19.0552C16.2139 19.0552 16.8389 19.3886 17.2181 19.947C17.8556 20.8887 17.6181 22.1762 16.6889 22.818L12.1136 25.9806C11.7761 26.214 11.3803 26.339 10.9719 26.339C10.301 26.339 9.67599 26.0056 9.29681 25.4473C8.65927 24.5055 8.89678 23.218 9.826 22.5763L14.4013 19.4136C14.7388 19.1803 15.1346 19.0552 15.543 19.0552ZM15.543 17.8052C14.9054 17.8052 14.2596 17.9927 13.6887 18.3844L9.11346 21.547C7.61755 22.5804 7.23419 24.6389 8.25925 26.1473C8.89678 27.0849 9.92184 27.5849 10.9719 27.5849C11.6094 27.5849 12.2553 27.3974 12.8262 27.0057L17.4014 23.843C18.8973 22.8096 19.2807 20.7512 18.2556 19.2428C17.6181 18.3094 16.5889 17.8052 15.543 17.8052Z" fill="#EDA600"/>
<path d="M20.4429 34.2602C19.7928 34.2602 19.1678 34.0185 18.6803 33.581C17.5844 32.5976 17.4844 30.8933 18.4594 29.7849L21.1221 26.7681C21.6263 26.1972 22.3513 25.868 23.1055 25.868C23.7555 25.868 24.3806 26.1097 24.8681 26.5472C25.964 27.5306 26.064 29.2349 25.0889 30.3433L22.4263 33.3601C21.9221 33.931 21.2012 34.2602 20.4429 34.2602Z" fill="url(#paint3_radial_71_54)"/>
<path d="M23.1101 26.4973C23.606 26.4973 24.0852 26.6806 24.4561 27.014C25.2978 27.7723 25.3728 29.0807 24.6227 29.9308L21.9601 32.9476C21.5767 33.3851 21.0225 33.6352 20.4433 33.6352C19.9475 33.6352 19.4683 33.4518 19.0974 33.1185C18.2557 32.3601 18.1807 31.0517 18.9307 30.2016L21.5934 27.1848C21.9767 26.7473 22.5309 26.4973 23.1101 26.4973ZM23.1101 25.2472C22.2059 25.2472 21.3059 25.6222 20.6558 26.3556L17.9932 29.3724C16.789 30.7392 16.9098 32.8309 18.264 34.0435C18.8891 34.606 19.6683 34.8811 20.4433 34.8811C21.3475 34.8811 22.2476 34.506 22.8976 33.7727L25.5603 30.7558C26.7645 29.3891 26.6437 27.2973 25.2894 26.0847C24.6644 25.5222 23.8852 25.2472 23.1101 25.2472Z" fill="#EDA600"/>
<path d="M7.63004 22.5388C6.70915 22.5388 5.87161 22.0679 5.38825 21.2804C4.62154 20.0303 5.00489 18.3844 6.24246 17.6093L9.03011 15.8676C9.4468 15.6092 9.926 15.4675 10.4135 15.4675C11.3344 15.4675 12.172 15.9384 12.6553 16.7259C13.422 17.976 13.0387 19.6219 11.8011 20.3928L9.01345 22.1346C8.59676 22.4012 8.11756 22.5388 7.63004 22.5388Z" fill="url(#paint4_radial_71_54)"/>
<path d="M10.4138 16.0967C11.1139 16.0967 11.7556 16.4551 12.1223 17.0593C12.7098 18.0177 12.4181 19.2803 11.4681 19.872L8.68458 21.6096C8.3679 21.8096 8.00538 21.9137 7.63452 21.9137C6.93448 21.9137 6.29278 21.5554 5.9261 20.9512C5.33856 19.9928 5.63025 18.7302 6.5803 18.1385L9.36795 16.3968C9.68047 16.2009 10.043 16.0967 10.4138 16.0967ZM10.4138 14.8467C9.82631 14.8467 9.23461 15.005 8.70125 15.3384L5.9136 17.0801C4.38434 18.0344 3.90932 20.0636 4.85937 21.6054C5.47607 22.6096 6.5428 23.1638 7.63452 23.1638C8.22206 23.1638 8.81376 23.0055 9.34712 22.6721L12.1348 20.9304C13.664 19.9761 14.139 17.9469 13.189 16.4051C12.5723 15.3967 11.5056 14.8467 10.4138 14.8467Z" fill="#EDA600"/>
<path d="M14.8636 31.8059C14.1761 31.8059 13.526 31.535 13.0385 31.0433C12.0301 30.0266 12.0301 28.3682 13.0385 27.3473L17.9305 22.4137C18.418 21.922 19.068 21.6511 19.7556 21.6511C20.4431 21.6511 21.0931 21.922 21.5807 22.4137C22.5932 23.4346 22.5932 25.0888 21.5807 26.1097L16.6887 31.0433C16.2012 31.535 15.5512 31.8059 14.8636 31.8059Z" fill="url(#paint5_radial_71_54)"/>
<path d="M19.7559 22.2762C20.2768 22.2762 20.7685 22.4804 21.1393 22.8554C21.9102 23.6304 21.9102 24.893 21.1393 25.6722L16.2432 30.6017C15.8724 30.9725 15.3848 31.1809 14.8598 31.1809C14.3348 31.1809 13.8473 30.9767 13.4764 30.6017C12.7055 29.8266 12.7055 28.564 13.4764 27.7848L18.3683 22.8512C18.7434 22.4804 19.2309 22.2762 19.7559 22.2762ZM19.7559 21.0261C18.935 21.0261 18.1142 21.3428 17.485 21.972L12.593 26.9056C11.3388 28.1682 11.3388 30.2183 12.593 31.4809C13.2181 32.1142 14.0389 32.4268 14.864 32.4268C15.6849 32.4268 16.5057 32.1101 17.1349 31.4809L22.0269 26.5473C23.2811 25.2847 23.2811 23.2346 22.0269 21.972C21.3977 21.3428 20.5768 21.0261 19.7559 21.0261Z" fill="#EDA600"/>
<mask id="mask0_71_54" style="mask-type:luminance" maskUnits="userSpaceOnUse" x="16" y="1" width="18" height="12">
<path d="M17.0136 10.2464C16.0761 8.62547 16.6136 6.73369 18.3554 5.65447L28.0559 1.33756C29.1226 0.950042 30.3185 3.49185 30.3185 3.49185L32.0145 6.60869C32.0145 6.60869 33.5354 8.83798 33.7021 9.04216C34.5604 10.0797 33.2604 8.74631 31.4811 8.35462C28.3309 7.66708 23.5765 11.4631 21.3014 11.8673C19.0263 12.2715 17.9512 11.8673 17.0136 10.2464Z" fill="white"/>
</mask>
<g mask="url(#mask0_71_54)">
<path d="M19.8722 11.388C18.7804 11.388 18.1721 11.0088 17.5512 9.93376C16.7803 8.60035 17.222 7.1086 18.6429 6.20438L28.281 1.91665C28.6768 1.77914 29.306 1.6958 30.0186 1.6958C32.1187 1.6958 34.1188 2.34167 34.3938 3.10421C34.4063 3.14171 34.423 3.17505 34.4438 3.20838L37.5148 8.41701C37.5231 8.45034 37.5231 8.46701 37.5231 8.47534C37.5023 8.47534 37.269 8.63368 36.4481 8.63368C35.2647 8.63368 33.4271 8.29617 31.6603 7.75447C31.2936 7.64196 30.8894 7.58363 30.4644 7.58363C28.4851 7.58363 26.2308 8.79619 24.2432 9.86292C23.0432 10.5088 21.9056 11.1172 21.1847 11.2463C20.6722 11.3422 20.243 11.388 19.8722 11.388Z" fill="url(#paint6_linear_71_54)"/>
<path d="M30.0225 2.32087C32.0934 2.32087 33.6518 2.96674 33.8102 3.31676C33.8352 3.39176 33.8685 3.4626 33.9102 3.52927L36.5562 8.01285H36.4562C35.3311 8.01285 33.5643 7.68783 31.8517 7.15864C31.4225 7.02946 30.96 6.96279 30.4725 6.96279C28.3349 6.96279 26.0056 8.21286 23.9555 9.31709C22.8512 9.91296 21.7053 10.5255 21.0845 10.638C20.6053 10.7213 20.2094 10.763 19.8761 10.763C19.101 10.763 18.6635 10.5963 18.0968 9.62127C17.5051 8.59622 17.8385 7.47949 18.9469 6.75861L28.5182 2.50005C28.8432 2.38754 29.4016 2.32087 30.0225 2.32087ZM30.0225 1.0708C29.2391 1.0708 28.5307 1.15831 28.0515 1.33332L18.351 5.65022C16.6092 6.72945 16.0717 8.62122 17.0092 10.2421C17.726 11.4797 18.5218 12.0089 19.8719 12.0089C20.2886 12.0089 20.7595 11.9589 21.297 11.8631C23.3388 11.5005 27.4223 8.20869 30.4683 8.20869C30.8225 8.20869 31.16 8.25453 31.4809 8.35037C33.131 8.85873 35.0894 9.25875 36.452 9.25875C37.6354 9.25875 38.3771 8.95457 38.0896 8.15869L34.9811 2.89173C34.5435 1.65417 32.0309 1.0708 30.0225 1.0708Z" fill="#EDA600"/>
</g>
<defs>
<radialGradient id="paint0_radial_71_54" cx="0" cy="0" r="1" gradientUnits="userSpaceOnUse" gradientTransform="translate(34.2947 4.62277) rotate(83.2169) scale(15.9976 12.3543)">
<stop offset="0.5993" stop-color="#FFCA28"/>
<stop offset="1" stop-color="#FFB300"/>
</radialGradient>
<radialGradient id="paint1_radial_71_54" cx="0" cy="0" r="1" gradientUnits="userSpaceOnUse" gradientTransform="translate(22.8504 7.76204) rotate(96.7831) scale(25.3255 19.5579)">
<stop offset="0.5993" stop-color="#FFCA28"/>
<stop offset="1" stop-color="#FFB300"/>
</radialGradient>
<radialGradient id="paint2_radial_71_54" cx="0" cy="0" r="1" gradientUnits="userSpaceOnUse" gradientTransform="translate(16.0602 20.5857) rotate(144.745) scale(6.91746 4.56343)">
<stop offset="0.5993" stop-color="#FFCA28"/>
<stop offset="1" stop-color="#FFB300"/>
</radialGradient>
<radialGradient id="paint3_radial_71_54" cx="0" cy="0" r="1" gradientUnits="userSpaceOnUse" gradientTransform="translate(23.6445 27.7522) rotate(130.726) scale(5.96151 4.48737)">
<stop offset="0.5993" stop-color="#FFCA28"/>
<stop offset="1" stop-color="#FFB300"/>
</radialGradient>
<radialGradient id="paint4_radial_71_54" cx="0" cy="0" r="1" gradientUnits="userSpaceOnUse" gradientTransform="translate(11.0548 17.6763) rotate(148.133) scale(5.27475 3.89216)">
<stop offset="0.5993" stop-color="#FFCA28"/>
<stop offset="1" stop-color="#FFB300"/>
</radialGradient>
<radialGradient id="paint5_radial_71_54" cx="0" cy="0" r="1" gradientUnits="userSpaceOnUse" gradientTransform="translate(20.5026 23.5703) rotate(45.2391) scale(5.95559 7.14746)">
<stop offset="0.5993" stop-color="#FFCA28"/>
<stop offset="1" stop-color="#FFB300"/>
</radialGradient>
<linearGradient id="paint6_linear_71_54" x1="23.9474" y1="4.44948" x2="28.7571" y2="13.1703" gradientUnits="userSpaceOnUse">
<stop offset="0.5993" stop-color="#FFCA28"/>
<stop offset="1" stop-color="#FFB300"/>
</linearGradient>
</defs>
</svg>
